<?xml version="1.0" encoding="utf-8"?>
<!-- Generator: Adobe Illustrator 23.0.1, SVG Export Plug-In . SVG Version: 6.00 Build 0)  -->
<svg version="1.1" id="레이어_1" xmlns="http://www.w3.org/2000/svg" xmlns:xlink="http://www.w3.org/1999/xlink" x="0px"
	 y="0px" viewBox="0 0 54.99 24.28" style="enable-background:new 0 0 54.99 24.28;" xml:space="preserve">
<style type="text/css">
	.st0{fill:#E72410;}
	.st1{fill:#ED6C00;}
</style>
<path class="st0" d="M51.06,2.59l-0.74-2.1c-0.13-0.38-0.55-0.58-0.93-0.44c-0.38,0.13-0.58,0.55-0.44,0.93l0.78,2.21l0.94,0.53
	L51.06,2.59z"/>
<path class="st1" d="M52.39,3.18l0.78-2.21c0.13-0.38-0.07-0.8-0.44-0.93c-0.38-0.13-0.8,0.07-0.93,0.44l-0.74,2.1l0.4,1.13
	L52.39,3.18z"/>
<path class="st0" d="M54.9,2.6c-0.2-0.35-0.64-0.47-0.99-0.27l-1.51,0.86l-0.41,1.16l0.79,0.3l1.85-1.05
	C54.97,3.39,55.09,2.95,54.9,2.6z"/>
<path class="st1" d="M51.79,5.83l1.59,0.59c0.08,0.03,0.17,0.05,0.26,0.05c0.3,0,0.57-0.18,0.68-0.47c0.14-0.38-0.05-0.8-0.43-0.94
	l-1.11-0.42L51.79,5.2V5.83z"/>
<path class="st0" d="M50.33,5.83v1.15c0,0.4,0.33,0.73,0.73,0.73c0.4,0,0.73-0.33,0.73-0.73V5.83l-0.73-0.27L50.33,5.83z"/>
<path class="st0" d="M49.34,4.64l-1.11,0.42C47.85,5.2,47.66,5.62,47.81,6c0.11,0.29,0.39,0.47,0.68,0.47
	c0.08,0,0.17-0.01,0.25-0.05l1.59-0.59V5.2L49.34,4.64z"/>
<path class="st1" d="M49.72,3.18l-1.51-0.86c-0.35-0.2-0.79-0.08-0.99,0.27c-0.2,0.35-0.07,0.8,0.27,0.99l1.85,1.05l0.79-0.3
	L49.72,3.18z"/>
<path class="st0" d="M23.53,24.06c2.57,0,4.91-1.08,6.56-2.8c1.11-1.14,1.93-2.58,2.36-4.17l2.87,5.39
	c0.45,0.84,1.31,1.36,2.26,1.36c0.95,0,1.82-0.52,2.26-1.36l7-13.16c0.67-1.25,0.19-2.8-1.06-3.47c-1.25-0.67-2.81-0.19-3.47,1.06
	l-4.52,8.8l-0.21,0.72l-0.21-0.72l-4.52-8.8c-0.66-1.25-2.22-1.73-3.47-1.06c-1.25,0.67-1.73,2.22-1.06,3.47L30,12.49h-5.21
	c-1.18,0-2.14,0.99-2.14,2.2c0,1.22,0.96,2.2,2.14,2.2h2.57c-0.69,1.07-1.87,2.1-3.84,2.1c-1.14,0-2.16-0.47-2.94-1.26
	c-0.77-0.8-1.25-1.89-1.25-3.14c0-2.16,1.48-3.9,3.32-4.3c1.36-0.3,2.22-1.65,1.92-3.02c-0.18-0.8-0.72-1.43-1.42-1.75
	c-1.01-0.44-2.25,0-2.25,0c-3.88,1.17-6.63,4.81-6.64,9.07c0,0.55,0.05,1.09,0.14,1.62c-0.81,1.33-2.33,3.01-4.88,3.01
	c-2.45,0-4.47-2.01-4.47-4.53c0-2.24,1.59-4.07,3.66-4.46c0,0,0.52-0.1,1.36-0.17c0.81-0.07,1.97-1.01,1.97-2.43
	c0-1.39-1.13-2.53-2.53-2.53C4.25,5.12,0.01,9.42,0,14.7c0.01,5.28,4.25,9.58,9.52,9.58c2.87,0,5.43-1.28,7.18-3.29
	C16.7,20.99,19.15,24.06,23.53,24.06z"/>
</svg>
